<?xml version="1.0" standalone="no"?>
<!DOCTYPE svg PUBLIC "-//W3C//DTD SVG 20010904//EN"
 "http://www.w3.org/TR/2001/REC-SVG-20010904/DTD/svg10.dtd">
<svg version="1.0" xmlns="http://www.w3.org/2000/svg"
 width="100.000000pt" height="100.000000pt" viewBox="0 0 100.000000 100.000000"
 preserveAspectRatio="xMidYMid meet">
<metadata>
Created by potrace 1.14, written by Peter Selinger 2001-2017
</metadata>
<g transform="translate(0.000000,100.000000) scale(0.100000,-0.100000)"
fill="#000000" stroke="none">
<path d="M489 798 c-8 -12 -18 -31 -24 -40 -33 -57 -244 -418 -263 -452 -13
-23 -32 -56 -43 -74 l-18 -32 254 0 c140 0 255 2 255 5 0 3 -12 23 -26 45
l-27 40 -143 0 c-79 0 -144 3 -144 8 0 4 8 21 18 37 10 17 30 50 44 75 14 25
49 87 78 138 l52 94 23 -39 c22 -35 27 -38 74 -40 28 -1 51 -1 51 2 0 5 -119
215 -135 238 -13 18 -14 18 -26 -5z"/>
<path d="M489 433 c-16 -23 -29 -44 -29 -47 0 -3 44 -6 98 -6 l97 0 49 -89 49
-88 54 -1 53 0 -41 76 c-23 43 -57 104 -76 137 l-34 60 -96 0 -95 0 -29 -42z"/>
</g>
</svg>
